<svg xmlns="http://www.w3.org/2000/svg" xmlns:xlink="http://www.w3.org/1999/xlink" width="305" zoomAndPan="magnify" viewBox="0 0 228.75 59.249999" height="79" preserveAspectRatio="xMidYMid meet" version="1.0"><defs><g/><clipPath id="ec1c055e25"><path d="M 0.324219 1 L 171.4375 1 L 171.4375 48.851562 L 0.324219 48.851562 Z M 0.324219 1 " clip-rule="nonzero"/></clipPath><clipPath id="7cf6a21734"><rect x="0" width="172" y="0" height="49"/></clipPath><clipPath id="c53485f9a0"><path d="M 0.324219 1 L 171.4375 1 L 171.4375 48.851562 L 0.324219 48.851562 Z M 0.324219 1 " clip-rule="nonzero"/></clipPath><clipPath id="66b116be8c"><rect x="0" width="172" y="0" height="49"/></clipPath></defs><g transform="matrix(1, 0, 0, 1, 28, 4)"><g clip-path="url(#7cf6a21734)"><g clip-path="url(#ec1c055e25)"><path fill="#1c3e60" d="M 0.730469 44.167969 L 0.730469 23.507812 C 0.730469 21.289062 2.527344 19.492188 4.746094 19.492188 L 24.15625 19.492188 C 26.375 19.492188 28.175781 17.691406 28.175781 15.476562 L 28.175781 5.265625 C 28.175781 3.046875 29.972656 1.25 32.191406 1.25 L 139.652344 1.25 C 141.871094 1.25 143.671875 3.046875 143.671875 5.265625 L 143.671875 15.476562 C 143.671875 17.691406 145.46875 19.492188 147.6875 19.492188 L 167.101562 19.492188 C 169.316406 19.492188 171.117188 21.289062 171.117188 23.507812 L 171.117188 44.167969 C 171.117188 46.386719 169.316406 48.183594 167.101562 48.183594 L 4.746094 48.183594 C 2.527344 48.183594 0.730469 46.386719 0.730469 44.167969 Z M 0.730469 44.167969 " fill-opacity="1" fill-rule="nonzero"/></g><g fill="#f1f0ed" fill-opacity="1"><g transform="translate(33.551128, 22.435967)"><g><path d="M 1.390625 -13.828125 L 5.296875 -13.828125 L 5.296875 0 L 1.390625 0 Z M 1.390625 -13.828125 "/></g></g></g><g fill="#f1f0ed" fill-opacity="1"><g transform="translate(41.831013, 22.435967)"><g><path d="M 2.8125 -14.84375 C 3.457031 -14.84375 3.988281 -14.640625 4.40625 -14.234375 C 4.832031 -13.828125 5.046875 -13.289062 5.046875 -12.625 C 5.046875 -12.320312 5.003906 -12.019531 4.921875 -11.71875 C 4.835938 -11.414062 4.664062 -10.960938 4.40625 -10.359375 L 3.140625 -7.46875 L 0.796875 -7.46875 L 1.71875 -10.6875 C 1.351562 -10.863281 1.066406 -11.117188 0.859375 -11.453125 C 0.648438 -11.785156 0.546875 -12.175781 0.546875 -12.625 C 0.546875 -13.289062 0.753906 -13.828125 1.171875 -14.234375 C 1.597656 -14.640625 2.144531 -14.84375 2.8125 -14.84375 Z M 2.8125 -14.84375 "/></g></g></g><g fill="#f1f0ed" fill-opacity="1"><g transform="translate(49.004336, 22.435967)"><g><path d="M 13.875 0 L 13.828125 -7.328125 L 10.28125 -1.359375 L 8.53125 -1.359375 L 5 -7.140625 L 5 0 L 1.390625 0 L 1.390625 -13.828125 L 4.609375 -13.828125 L 9.46875 -5.84375 L 14.21875 -13.828125 L 17.4375 -13.828125 L 17.46875 0 Z M 13.875 0 "/></g></g></g><g fill="#f1f0ed" fill-opacity="1"><g transform="translate(69.436699, 22.435967)"><g/></g></g><g fill="#fdb704" fill-opacity="1"><g transform="translate(76.777153, 22.435967)"><g><path d="M 6.25 0.28125 C 5.125 0.28125 4.035156 0.144531 2.984375 -0.125 C 1.929688 -0.40625 1.078125 -0.78125 0.421875 -1.25 L 1.703125 -4.125 C 2.316406 -3.71875 3.03125 -3.390625 3.84375 -3.140625 C 4.664062 -2.890625 5.472656 -2.765625 6.265625 -2.765625 C 7.765625 -2.765625 8.515625 -3.140625 8.515625 -3.890625 C 8.515625 -4.285156 8.300781 -4.578125 7.875 -4.765625 C 7.445312 -4.960938 6.757812 -5.164062 5.8125 -5.375 C 4.769531 -5.601562 3.898438 -5.84375 3.203125 -6.09375 C 2.503906 -6.351562 1.90625 -6.765625 1.40625 -7.328125 C 0.90625 -7.898438 0.65625 -8.664062 0.65625 -9.625 C 0.65625 -10.46875 0.882812 -11.226562 1.34375 -11.90625 C 1.800781 -12.582031 2.488281 -13.117188 3.40625 -13.515625 C 4.320312 -13.910156 5.445312 -14.109375 6.78125 -14.109375 C 7.6875 -14.109375 8.582031 -14.003906 9.46875 -13.796875 C 10.351562 -13.597656 11.128906 -13.300781 11.796875 -12.90625 L 10.59375 -10 C 9.28125 -10.707031 8.003906 -11.0625 6.765625 -11.0625 C 5.984375 -11.0625 5.414062 -10.945312 5.0625 -10.71875 C 4.707031 -10.488281 4.53125 -10.191406 4.53125 -9.828125 C 4.53125 -9.453125 4.738281 -9.171875 5.15625 -8.984375 C 5.582031 -8.804688 6.257812 -8.617188 7.1875 -8.421875 C 8.25 -8.191406 9.125 -7.945312 9.8125 -7.6875 C 10.5 -7.4375 11.097656 -7.03125 11.609375 -6.46875 C 12.117188 -5.914062 12.375 -5.15625 12.375 -4.1875 C 12.375 -3.351562 12.140625 -2.597656 11.671875 -1.921875 C 11.210938 -1.253906 10.519531 -0.71875 9.59375 -0.3125 C 8.675781 0.0820312 7.5625 0.28125 6.25 0.28125 Z M 6.25 0.28125 "/></g></g></g><g fill="#fdb704" fill-opacity="1"><g transform="translate(91.143155, 22.435967)"><g><path d="M 5.296875 -10.8125 L 5.296875 -7.765625 L 11.40625 -7.765625 L 11.40625 -4.75 L 5.296875 -4.75 L 5.296875 0 L 1.390625 0 L 1.390625 -13.828125 L 12.234375 -13.828125 L 12.234375 -10.8125 Z M 5.296875 -10.8125 "/></g></g></g><g fill="#fdb704" fill-opacity="1"><g transform="translate(105.410355, 22.435967)"><g><path d="M 8.359375 0.28125 C 6.898438 0.28125 5.585938 -0.0234375 4.421875 -0.640625 C 3.253906 -1.265625 2.335938 -2.125 1.671875 -3.21875 C 1.003906 -4.3125 0.671875 -5.546875 0.671875 -6.921875 C 0.671875 -8.285156 1.003906 -9.515625 1.671875 -10.609375 C 2.335938 -11.703125 3.253906 -12.554688 4.421875 -13.171875 C 5.585938 -13.796875 6.898438 -14.109375 8.359375 -14.109375 C 9.828125 -14.109375 11.140625 -13.796875 12.296875 -13.171875 C 13.460938 -12.554688 14.378906 -11.703125 15.046875 -10.609375 C 15.710938 -9.515625 16.046875 -8.285156 16.046875 -6.921875 C 16.046875 -5.546875 15.710938 -4.3125 15.046875 -3.21875 C 14.378906 -2.125 13.460938 -1.265625 12.296875 -0.640625 C 11.140625 -0.0234375 9.828125 0.28125 8.359375 0.28125 Z M 8.359375 -2.96875 C 9.054688 -2.96875 9.6875 -3.128906 10.25 -3.453125 C 10.820312 -3.785156 11.269531 -4.25 11.59375 -4.84375 C 11.925781 -5.445312 12.09375 -6.140625 12.09375 -6.921875 C 12.09375 -7.691406 11.925781 -8.375 11.59375 -8.96875 C 11.269531 -9.570312 10.820312 -10.039062 10.25 -10.375 C 9.6875 -10.707031 9.054688 -10.875 8.359375 -10.875 C 7.660156 -10.875 7.023438 -10.707031 6.453125 -10.375 C 5.890625 -10.039062 5.441406 -9.570312 5.109375 -8.96875 C 4.785156 -8.375 4.625 -7.691406 4.625 -6.921875 C 4.625 -6.140625 4.785156 -5.445312 5.109375 -4.84375 C 5.441406 -4.25 5.890625 -3.785156 6.453125 -3.453125 C 7.023438 -3.128906 7.660156 -2.96875 8.359375 -2.96875 Z M 8.359375 -2.96875 "/></g></g></g><g fill="#fdb704" fill-opacity="1"><g transform="translate(123.70862, 22.435967)"><g><path d="M 8.28125 0.28125 C 6.832031 0.28125 5.53125 -0.0234375 4.375 -0.640625 C 3.226562 -1.253906 2.320312 -2.109375 1.65625 -3.203125 C 1 -4.296875 0.671875 -5.535156 0.671875 -6.921875 C 0.671875 -8.304688 1 -9.546875 1.65625 -10.640625 C 2.320312 -11.734375 3.226562 -12.582031 4.375 -13.1875 C 5.53125 -13.800781 6.832031 -14.109375 8.28125 -14.109375 C 9.539062 -14.109375 10.675781 -13.882812 11.6875 -13.4375 C 12.707031 -12.988281 13.554688 -12.34375 14.234375 -11.5 L 11.734375 -9.25 C 10.835938 -10.332031 9.753906 -10.875 8.484375 -10.875 C 7.734375 -10.875 7.0625 -10.707031 6.46875 -10.375 C 5.882812 -10.039062 5.429688 -9.570312 5.109375 -8.96875 C 4.785156 -8.375 4.625 -7.691406 4.625 -6.921875 C 4.625 -6.140625 4.785156 -5.445312 5.109375 -4.84375 C 5.429688 -4.25 5.882812 -3.785156 6.46875 -3.453125 C 7.0625 -3.128906 7.734375 -2.96875 8.484375 -2.96875 C 9.753906 -2.96875 10.835938 -3.503906 11.734375 -4.578125 L 14.234375 -2.328125 C 13.554688 -1.484375 12.707031 -0.835938 11.6875 -0.390625 C 10.675781 0.0546875 9.539062 0.28125 8.28125 0.28125 Z M 8.28125 0.28125 "/></g></g></g><g fill="#f1f0ed" fill-opacity="1"><g transform="translate(6.10474, 40.679263)"><g><path d="M 7.703125 -13.828125 C 8.960938 -13.828125 10.050781 -13.617188 10.96875 -13.203125 C 11.894531 -12.796875 12.609375 -12.207031 13.109375 -11.4375 C 13.609375 -10.664062 13.859375 -9.757812 13.859375 -8.71875 C 13.859375 -7.675781 13.609375 -6.769531 13.109375 -6 C 12.609375 -5.238281 11.894531 -4.648438 10.96875 -4.234375 C 10.050781 -3.816406 8.960938 -3.609375 7.703125 -3.609375 L 5.296875 -3.609375 L 5.296875 0 L 1.390625 0 L 1.390625 -13.828125 Z M 7.46875 -6.703125 C 8.269531 -6.703125 8.875 -6.875 9.28125 -7.21875 C 9.695312 -7.570312 9.90625 -8.070312 9.90625 -8.71875 C 9.90625 -9.363281 9.695312 -9.863281 9.28125 -10.21875 C 8.875 -10.570312 8.269531 -10.75 7.46875 -10.75 L 5.296875 -10.75 L 5.296875 -6.703125 Z M 7.46875 -6.703125 "/></g></g></g><g fill="#f1f0ed" fill-opacity="1"><g transform="translate(22.249152, 40.679263)"><g><path d="M 10.65625 -2.6875 L 4.796875 -2.6875 L 3.71875 0 L -0.28125 0 L 5.828125 -13.828125 L 9.6875 -13.828125 L 15.8125 0 L 11.734375 0 Z M 9.5 -5.578125 L 7.734375 -10 L 5.953125 -5.578125 Z M 9.5 -5.578125 "/></g></g></g><g fill="#f1f0ed" fill-opacity="1"><g transform="translate(39.361806, 40.679263)"><g><path d="M 7.4375 -3.671875 L 5.296875 -3.671875 L 5.296875 0 L 1.390625 0 L 1.390625 -13.828125 L 7.703125 -13.828125 C 8.960938 -13.828125 10.050781 -13.617188 10.96875 -13.203125 C 11.894531 -12.796875 12.609375 -12.207031 13.109375 -11.4375 C 13.609375 -10.664062 13.859375 -9.757812 13.859375 -8.71875 C 13.859375 -7.71875 13.625 -6.84375 13.15625 -6.09375 C 12.6875 -5.351562 12.015625 -4.769531 11.140625 -4.34375 L 14.125 0 L 9.9375 0 Z M 9.90625 -8.71875 C 9.90625 -9.363281 9.695312 -9.863281 9.28125 -10.21875 C 8.875 -10.570312 8.269531 -10.75 7.46875 -10.75 L 5.296875 -10.75 L 5.296875 -6.703125 L 7.46875 -6.703125 C 8.269531 -6.703125 8.875 -6.875 9.28125 -7.21875 C 9.695312 -7.570312 9.90625 -8.070312 9.90625 -8.71875 Z M 9.90625 -8.71875 "/></g></g></g><g fill="#f1f0ed" fill-opacity="1"><g transform="translate(55.565501, 40.679263)"><g><path d="M 4.328125 -10.734375 L 0.078125 -10.734375 L 0.078125 -13.828125 L 12.46875 -13.828125 L 12.46875 -10.734375 L 8.25 -10.734375 L 8.25 0 L 4.328125 0 Z M 4.328125 -10.734375 "/></g></g></g><g fill="#f1f0ed" fill-opacity="1"><g transform="translate(69.69438, 40.679263)"><g><path d="M 1.390625 -13.828125 L 5.296875 -13.828125 L 5.296875 0 L 1.390625 0 Z M 1.390625 -13.828125 "/></g></g></g><g fill="#f1f0ed" fill-opacity="1"><g transform="translate(77.974266, 40.679263)"><g><path d="M 8.28125 0.28125 C 6.832031 0.28125 5.53125 -0.0234375 4.375 -0.640625 C 3.226562 -1.253906 2.320312 -2.109375 1.65625 -3.203125 C 1 -4.296875 0.671875 -5.535156 0.671875 -6.921875 C 0.671875 -8.304688 1 -9.546875 1.65625 -10.640625 C 2.320312 -11.734375 3.226562 -12.582031 4.375 -13.1875 C 5.53125 -13.800781 6.832031 -14.109375 8.28125 -14.109375 C 9.539062 -14.109375 10.675781 -13.882812 11.6875 -13.4375 C 12.707031 -12.988281 13.554688 -12.34375 14.234375 -11.5 L 11.734375 -9.25 C 10.835938 -10.332031 9.753906 -10.875 8.484375 -10.875 C 7.734375 -10.875 7.0625 -10.707031 6.46875 -10.375 C 5.882812 -10.039062 5.429688 -9.570312 5.109375 -8.96875 C 4.785156 -8.375 4.625 -7.691406 4.625 -6.921875 C 4.625 -6.140625 4.785156 -5.445312 5.109375 -4.84375 C 5.429688 -4.25 5.882812 -3.785156 6.46875 -3.453125 C 7.0625 -3.128906 7.734375 -2.96875 8.484375 -2.96875 C 9.753906 -2.96875 10.835938 -3.503906 11.734375 -4.578125 L 14.234375 -2.328125 C 13.554688 -1.484375 12.707031 -0.835938 11.6875 -0.390625 C 10.675781 0.0546875 9.539062 0.28125 8.28125 0.28125 Z M 8.28125 0.28125 "/></g></g></g><g fill="#f1f0ed" fill-opacity="1"><g transform="translate(94.138442, 40.679263)"><g><path d="M 1.390625 -13.828125 L 5.296875 -13.828125 L 5.296875 0 L 1.390625 0 Z M 1.390625 -13.828125 "/></g></g></g><g fill="#f1f0ed" fill-opacity="1"><g transform="translate(102.418328, 40.679263)"><g><path d="M 7.703125 -13.828125 C 8.960938 -13.828125 10.050781 -13.617188 10.96875 -13.203125 C 11.894531 -12.796875 12.609375 -12.207031 13.109375 -11.4375 C 13.609375 -10.664062 13.859375 -9.757812 13.859375 -8.71875 C 13.859375 -7.675781 13.609375 -6.769531 13.109375 -6 C 12.609375 -5.238281 11.894531 -4.648438 10.96875 -4.234375 C 10.050781 -3.816406 8.960938 -3.609375 7.703125 -3.609375 L 5.296875 -3.609375 L 5.296875 0 L 1.390625 0 L 1.390625 -13.828125 Z M 7.46875 -6.703125 C 8.269531 -6.703125 8.875 -6.875 9.28125 -7.21875 C 9.695312 -7.570312 9.90625 -8.070312 9.90625 -8.71875 C 9.90625 -9.363281 9.695312 -9.863281 9.28125 -10.21875 C 8.875 -10.570312 8.269531 -10.75 7.46875 -10.75 L 5.296875 -10.75 L 5.296875 -6.703125 Z M 7.46875 -6.703125 "/></g></g></g><g fill="#f1f0ed" fill-opacity="1"><g transform="translate(118.56274, 40.679263)"><g><path d="M 10.65625 -2.6875 L 4.796875 -2.6875 L 3.71875 0 L -0.28125 0 L 5.828125 -13.828125 L 9.6875 -13.828125 L 15.8125 0 L 11.734375 0 Z M 9.5 -5.578125 L 7.734375 -10 L 5.953125 -5.578125 Z M 9.5 -5.578125 "/></g></g></g><g fill="#f1f0ed" fill-opacity="1"><g transform="translate(135.675394, 40.679263)"><g><path d="M 14.546875 -13.828125 L 14.546875 0 L 11.328125 0 L 5.21875 -7.375 L 5.21875 0 L 1.390625 0 L 1.390625 -13.828125 L 4.609375 -13.828125 L 10.71875 -6.46875 L 10.71875 -13.828125 Z M 14.546875 -13.828125 "/></g></g></g><g fill="#f1f0ed" fill-opacity="1"><g transform="translate(153.183255, 40.679263)"><g><path d="M 4.328125 -10.734375 L 0.078125 -10.734375 L 0.078125 -13.828125 L 12.46875 -13.828125 L 12.46875 -10.734375 L 8.25 -10.734375 L 8.25 0 L 4.328125 0 Z M 4.328125 -10.734375 "/></g></g></g></g></g><g transform="matrix(1, 0, 0, 1, 28, 4)"><g clip-path="url(#66b116be8c)"><g clip-path="url(#c53485f9a0)"><path fill="#1c3e60" d="M 0.730469 44.167969 L 0.730469 23.507812 C 0.730469 21.289062 2.527344 19.492188 4.746094 19.492188 L 24.15625 19.492188 C 26.375 19.492188 28.175781 17.691406 28.175781 15.476562 L 28.175781 5.265625 C 28.175781 3.046875 29.972656 1.25 32.191406 1.25 L 139.652344 1.25 C 141.871094 1.25 143.671875 3.046875 143.671875 5.265625 L 143.671875 15.476562 C 143.671875 17.691406 145.46875 19.492188 147.6875 19.492188 L 167.101562 19.492188 C 169.316406 19.492188 171.117188 21.289062 171.117188 23.507812 L 171.117188 44.167969 C 171.117188 46.386719 169.316406 48.183594 167.101562 48.183594 L 4.746094 48.183594 C 2.527344 48.183594 0.730469 46.386719 0.730469 44.167969 Z M 0.730469 44.167969 " fill-opacity="1" fill-rule="nonzero"/></g><g fill="#f1f0ed" fill-opacity="1"><g transform="translate(33.551128, 22.435967)"><g><path d="M 1.390625 -13.828125 L 5.296875 -13.828125 L 5.296875 0 L 1.390625 0 Z M 1.390625 -13.828125 "/></g></g></g><g fill="#f1f0ed" fill-opacity="1"><g transform="translate(41.831013, 22.435967)"><g><path d="M 2.8125 -14.84375 C 3.457031 -14.84375 3.988281 -14.640625 4.40625 -14.234375 C 4.832031 -13.828125 5.046875 -13.289062 5.046875 -12.625 C 5.046875 -12.320312 5.003906 -12.019531 4.921875 -11.71875 C 4.835938 -11.414062 4.664062 -10.960938 4.40625 -10.359375 L 3.140625 -7.46875 L 0.796875 -7.46875 L 1.71875 -10.6875 C 1.351562 -10.863281 1.066406 -11.117188 0.859375 -11.453125 C 0.648438 -11.785156 0.546875 -12.175781 0.546875 -12.625 C 0.546875 -13.289062 0.753906 -13.828125 1.171875 -14.234375 C 1.597656 -14.640625 2.144531 -14.84375 2.8125 -14.84375 Z M 2.8125 -14.84375 "/></g></g></g><g fill="#f1f0ed" fill-opacity="1"><g transform="translate(49.004336, 22.435967)"><g><path d="M 13.875 0 L 13.828125 -7.328125 L 10.28125 -1.359375 L 8.53125 -1.359375 L 5 -7.140625 L 5 0 L 1.390625 0 L 1.390625 -13.828125 L 4.609375 -13.828125 L 9.46875 -5.84375 L 14.21875 -13.828125 L 17.4375 -13.828125 L 17.46875 0 Z M 13.875 0 "/></g></g></g><g fill="#f1f0ed" fill-opacity="1"><g transform="translate(69.436699, 22.435967)"><g/></g></g><g fill="#fdb704" fill-opacity="1"><g transform="translate(76.777153, 22.435967)"><g><path d="M 6.25 0.28125 C 5.125 0.28125 4.035156 0.144531 2.984375 -0.125 C 1.929688 -0.40625 1.078125 -0.78125 0.421875 -1.25 L 1.703125 -4.125 C 2.316406 -3.71875 3.03125 -3.390625 3.84375 -3.140625 C 4.664062 -2.890625 5.472656 -2.765625 6.265625 -2.765625 C 7.765625 -2.765625 8.515625 -3.140625 8.515625 -3.890625 C 8.515625 -4.285156 8.300781 -4.578125 7.875 -4.765625 C 7.445312 -4.960938 6.757812 -5.164062 5.8125 -5.375 C 4.769531 -5.601562 3.898438 -5.84375 3.203125 -6.09375 C 2.503906 -6.351562 1.90625 -6.765625 1.40625 -7.328125 C 0.90625 -7.898438 0.65625 -8.664062 0.65625 -9.625 C 0.65625 -10.46875 0.882812 -11.226562 1.34375 -11.90625 C 1.800781 -12.582031 2.488281 -13.117188 3.40625 -13.515625 C 4.320312 -13.910156 5.445312 -14.109375 6.78125 -14.109375 C 7.6875 -14.109375 8.582031 -14.003906 9.46875 -13.796875 C 10.351562 -13.597656 11.128906 -13.300781 11.796875 -12.90625 L 10.59375 -10 C 9.28125 -10.707031 8.003906 -11.0625 6.765625 -11.0625 C 5.984375 -11.0625 5.414062 -10.945312 5.0625 -10.71875 C 4.707031 -10.488281 4.53125 -10.191406 4.53125 -9.828125 C 4.53125 -9.453125 4.738281 -9.171875 5.15625 -8.984375 C 5.582031 -8.804688 6.257812 -8.617188 7.1875 -8.421875 C 8.25 -8.191406 9.125 -7.945312 9.8125 -7.6875 C 10.5 -7.4375 11.097656 -7.03125 11.609375 -6.46875 C 12.117188 -5.914062 12.375 -5.15625 12.375 -4.1875 C 12.375 -3.351562 12.140625 -2.597656 11.671875 -1.921875 C 11.210938 -1.253906 10.519531 -0.71875 9.59375 -0.3125 C 8.675781 0.0820312 7.5625 0.28125 6.25 0.28125 Z M 6.25 0.28125 "/></g></g></g><g fill="#fdb704" fill-opacity="1"><g transform="translate(91.143155, 22.435967)"><g><path d="M 5.296875 -10.8125 L 5.296875 -7.765625 L 11.40625 -7.765625 L 11.40625 -4.75 L 5.296875 -4.75 L 5.296875 0 L 1.390625 0 L 1.390625 -13.828125 L 12.234375 -13.828125 L 12.234375 -10.8125 Z M 5.296875 -10.8125 "/></g></g></g><g fill="#fdb704" fill-opacity="1"><g transform="translate(105.410355, 22.435967)"><g><path d="M 8.359375 0.28125 C 6.898438 0.28125 5.585938 -0.0234375 4.421875 -0.640625 C 3.253906 -1.265625 2.335938 -2.125 1.671875 -3.21875 C 1.003906 -4.3125 0.671875 -5.546875 0.671875 -6.921875 C 0.671875 -8.285156 1.003906 -9.515625 1.671875 -10.609375 C 2.335938 -11.703125 3.253906 -12.554688 4.421875 -13.171875 C 5.585938 -13.796875 6.898438 -14.109375 8.359375 -14.109375 C 9.828125 -14.109375 11.140625 -13.796875 12.296875 -13.171875 C 13.460938 -12.554688 14.378906 -11.703125 15.046875 -10.609375 C 15.710938 -9.515625 16.046875 -8.285156 16.046875 -6.921875 C 16.046875 -5.546875 15.710938 -4.3125 15.046875 -3.21875 C 14.378906 -2.125 13.460938 -1.265625 12.296875 -0.640625 C 11.140625 -0.0234375 9.828125 0.28125 8.359375 0.28125 Z M 8.359375 -2.96875 C 9.054688 -2.96875 9.6875 -3.128906 10.25 -3.453125 C 10.820312 -3.785156 11.269531 -4.25 11.59375 -4.84375 C 11.925781 -5.445312 12.09375 -6.140625 12.09375 -6.921875 C 12.09375 -7.691406 11.925781 -8.375 11.59375 -8.96875 C 11.269531 -9.570312 10.820312 -10.039062 10.25 -10.375 C 9.6875 -10.707031 9.054688 -10.875 8.359375 -10.875 C 7.660156 -10.875 7.023438 -10.707031 6.453125 -10.375 C 5.890625 -10.039062 5.441406 -9.570312 5.109375 -8.96875 C 4.785156 -8.375 4.625 -7.691406 4.625 -6.921875 C 4.625 -6.140625 4.785156 -5.445312 5.109375 -4.84375 C 5.441406 -4.25 5.890625 -3.785156 6.453125 -3.453125 C 7.023438 -3.128906 7.660156 -2.96875 8.359375 -2.96875 Z M 8.359375 -2.96875 "/></g></g></g><g fill="#fdb704" fill-opacity="1"><g transform="translate(123.70862, 22.435967)"><g><path d="M 8.28125 0.28125 C 6.832031 0.28125 5.53125 -0.0234375 4.375 -0.640625 C 3.226562 -1.253906 2.320312 -2.109375 1.65625 -3.203125 C 1 -4.296875 0.671875 -5.535156 0.671875 -6.921875 C 0.671875 -8.304688 1 -9.546875 1.65625 -10.640625 C 2.320312 -11.734375 3.226562 -12.582031 4.375 -13.1875 C 5.53125 -13.800781 6.832031 -14.109375 8.28125 -14.109375 C 9.539062 -14.109375 10.675781 -13.882812 11.6875 -13.4375 C 12.707031 -12.988281 13.554688 -12.34375 14.234375 -11.5 L 11.734375 -9.25 C 10.835938 -10.332031 9.753906 -10.875 8.484375 -10.875 C 7.734375 -10.875 7.0625 -10.707031 6.46875 -10.375 C 5.882812 -10.039062 5.429688 -9.570312 5.109375 -8.96875 C 4.785156 -8.375 4.625 -7.691406 4.625 -6.921875 C 4.625 -6.140625 4.785156 -5.445312 5.109375 -4.84375 C 5.429688 -4.25 5.882812 -3.785156 6.46875 -3.453125 C 7.0625 -3.128906 7.734375 -2.96875 8.484375 -2.96875 C 9.753906 -2.96875 10.835938 -3.503906 11.734375 -4.578125 L 14.234375 -2.328125 C 13.554688 -1.484375 12.707031 -0.835938 11.6875 -0.390625 C 10.675781 0.0546875 9.539062 0.28125 8.28125 0.28125 Z M 8.28125 0.28125 "/></g></g></g><g fill="#f1f0ed" fill-opacity="1"><g transform="translate(6.10474, 40.679263)"><g><path d="M 7.703125 -13.828125 C 8.960938 -13.828125 10.050781 -13.617188 10.96875 -13.203125 C 11.894531 -12.796875 12.609375 -12.207031 13.109375 -11.4375 C 13.609375 -10.664062 13.859375 -9.757812 13.859375 -8.71875 C 13.859375 -7.675781 13.609375 -6.769531 13.109375 -6 C 12.609375 -5.238281 11.894531 -4.648438 10.96875 -4.234375 C 10.050781 -3.816406 8.960938 -3.609375 7.703125 -3.609375 L 5.296875 -3.609375 L 5.296875 0 L 1.390625 0 L 1.390625 -13.828125 Z M 7.46875 -6.703125 C 8.269531 -6.703125 8.875 -6.875 9.28125 -7.21875 C 9.695312 -7.570312 9.90625 -8.070312 9.90625 -8.71875 C 9.90625 -9.363281 9.695312 -9.863281 9.28125 -10.21875 C 8.875 -10.570312 8.269531 -10.75 7.46875 -10.75 L 5.296875 -10.75 L 5.296875 -6.703125 Z M 7.46875 -6.703125 "/></g></g></g><g fill="#f1f0ed" fill-opacity="1"><g transform="translate(22.249152, 40.679263)"><g><path d="M 10.65625 -2.6875 L 4.796875 -2.6875 L 3.71875 0 L -0.28125 0 L 5.828125 -13.828125 L 9.6875 -13.828125 L 15.8125 0 L 11.734375 0 Z M 9.5 -5.578125 L 7.734375 -10 L 5.953125 -5.578125 Z M 9.5 -5.578125 "/></g></g></g><g fill="#f1f0ed" fill-opacity="1"><g transform="translate(39.361806, 40.679263)"><g><path d="M 7.4375 -3.671875 L 5.296875 -3.671875 L 5.296875 0 L 1.390625 0 L 1.390625 -13.828125 L 7.703125 -13.828125 C 8.960938 -13.828125 10.050781 -13.617188 10.96875 -13.203125 C 11.894531 -12.796875 12.609375 -12.207031 13.109375 -11.4375 C 13.609375 -10.664062 13.859375 -9.757812 13.859375 -8.71875 C 13.859375 -7.71875 13.625 -6.84375 13.15625 -6.09375 C 12.6875 -5.351562 12.015625 -4.769531 11.140625 -4.34375 L 14.125 0 L 9.9375 0 Z M 9.90625 -8.71875 C 9.90625 -9.363281 9.695312 -9.863281 9.28125 -10.21875 C 8.875 -10.570312 8.269531 -10.75 7.46875 -10.75 L 5.296875 -10.75 L 5.296875 -6.703125 L 7.46875 -6.703125 C 8.269531 -6.703125 8.875 -6.875 9.28125 -7.21875 C 9.695312 -7.570312 9.90625 -8.070312 9.90625 -8.71875 Z M 9.90625 -8.71875 "/></g></g></g><g fill="#f1f0ed" fill-opacity="1"><g transform="translate(55.565501, 40.679263)"><g><path d="M 4.328125 -10.734375 L 0.078125 -10.734375 L 0.078125 -13.828125 L 12.46875 -13.828125 L 12.46875 -10.734375 L 8.25 -10.734375 L 8.25 0 L 4.328125 0 Z M 4.328125 -10.734375 "/></g></g></g><g fill="#f1f0ed" fill-opacity="1"><g transform="translate(69.69438, 40.679263)"><g><path d="M 1.390625 -13.828125 L 5.296875 -13.828125 L 5.296875 0 L 1.390625 0 Z M 1.390625 -13.828125 "/></g></g></g><g fill="#f1f0ed" fill-opacity="1"><g transform="translate(77.974266, 40.679263)"><g><path d="M 8.28125 0.28125 C 6.832031 0.28125 5.53125 -0.0234375 4.375 -0.640625 C 3.226562 -1.253906 2.320312 -2.109375 1.65625 -3.203125 C 1 -4.296875 0.671875 -5.535156 0.671875 -6.921875 C 0.671875 -8.304688 1 -9.546875 1.65625 -10.640625 C 2.320312 -11.734375 3.226562 -12.582031 4.375 -13.1875 C 5.53125 -13.800781 6.832031 -14.109375 8.28125 -14.109375 C 9.539062 -14.109375 10.675781 -13.882812 11.6875 -13.4375 C 12.707031 -12.988281 13.554688 -12.34375 14.234375 -11.5 L 11.734375 -9.25 C 10.835938 -10.332031 9.753906 -10.875 8.484375 -10.875 C 7.734375 -10.875 7.0625 -10.707031 6.46875 -10.375 C 5.882812 -10.039062 5.429688 -9.570312 5.109375 -8.96875 C 4.785156 -8.375 4.625 -7.691406 4.625 -6.921875 C 4.625 -6.140625 4.785156 -5.445312 5.109375 -4.84375 C 5.429688 -4.25 5.882812 -3.785156 6.46875 -3.453125 C 7.0625 -3.128906 7.734375 -2.96875 8.484375 -2.96875 C 9.753906 -2.96875 10.835938 -3.503906 11.734375 -4.578125 L 14.234375 -2.328125 C 13.554688 -1.484375 12.707031 -0.835938 11.6875 -0.390625 C 10.675781 0.0546875 9.539062 0.28125 8.28125 0.28125 Z M 8.28125 0.28125 "/></g></g></g><g fill="#f1f0ed" fill-opacity="1"><g transform="translate(94.138442, 40.679263)"><g><path d="M 1.390625 -13.828125 L 5.296875 -13.828125 L 5.296875 0 L 1.390625 0 Z M 1.390625 -13.828125 "/></g></g></g><g fill="#f1f0ed" fill-opacity="1"><g transform="translate(102.418328, 40.679263)"><g><path d="M 7.703125 -13.828125 C 8.960938 -13.828125 10.050781 -13.617188 10.96875 -13.203125 C 11.894531 -12.796875 12.609375 -12.207031 13.109375 -11.4375 C 13.609375 -10.664062 13.859375 -9.757812 13.859375 -8.71875 C 13.859375 -7.675781 13.609375 -6.769531 13.109375 -6 C 12.609375 -5.238281 11.894531 -4.648438 10.96875 -4.234375 C 10.050781 -3.816406 8.960938 -3.609375 7.703125 -3.609375 L 5.296875 -3.609375 L 5.296875 0 L 1.390625 0 L 1.390625 -13.828125 Z M 7.46875 -6.703125 C 8.269531 -6.703125 8.875 -6.875 9.28125 -7.21875 C 9.695312 -7.570312 9.90625 -8.070312 9.90625 -8.71875 C 9.90625 -9.363281 9.695312 -9.863281 9.28125 -10.21875 C 8.875 -10.570312 8.269531 -10.75 7.46875 -10.75 L 5.296875 -10.75 L 5.296875 -6.703125 Z M 7.46875 -6.703125 "/></g></g></g><g fill="#f1f0ed" fill-opacity="1"><g transform="translate(118.56274, 40.679263)"><g><path d="M 10.65625 -2.6875 L 4.796875 -2.6875 L 3.71875 0 L -0.28125 0 L 5.828125 -13.828125 L 9.6875 -13.828125 L 15.8125 0 L 11.734375 0 Z M 9.5 -5.578125 L 7.734375 -10 L 5.953125 -5.578125 Z M 9.5 -5.578125 "/></g></g></g><g fill="#f1f0ed" fill-opacity="1"><g transform="translate(135.675394, 40.679263)"><g><path d="M 14.546875 -13.828125 L 14.546875 0 L 11.328125 0 L 5.21875 -7.375 L 5.21875 0 L 1.390625 0 L 1.390625 -13.828125 L 4.609375 -13.828125 L 10.71875 -6.46875 L 10.71875 -13.828125 Z M 14.546875 -13.828125 "/></g></g></g><g fill="#f1f0ed" fill-opacity="1"><g transform="translate(153.183255, 40.679263)"><g><path d="M 4.328125 -10.734375 L 0.078125 -10.734375 L 0.078125 -13.828125 L 12.46875 -13.828125 L 12.46875 -10.734375 L 8.25 -10.734375 L 8.25 0 L 4.328125 0 Z M 4.328125 -10.734375 "/></g></g></g></g></g></svg>